<?xml version="1.0" encoding="UTF-8" standalone="no"?>
<svg
   xmlns:dc="http://purl.org/dc/elements/1.1/"
   xmlns:cc="http://creativecommons.org/ns#"
   xmlns:rdf="http://www.w3.org/1999/02/22-rdf-syntax-ns#"
   xmlns:svg="http://www.w3.org/2000/svg"
   xmlns="http://www.w3.org/2000/svg"
   xmlns:sodipodi="http://sodipodi.sourceforge.net/DTD/sodipodi-0.dtd"
   xmlns:inkscape="http://www.inkscape.org/namespaces/inkscape"
   version="1.1"
   viewBox="0 0 500.00001 500.00002"
   id="svg6"
   sodipodi:docname="Fedora_icon_(2021).svg"
   width="500"
   height="500"
   inkscape:version="1.0.1 (3bc2e813f5, 2020-09-07)"
   inkscape:export-filename="C:\Users\raphael\Downloads\fedora-server.png"
   inkscape:export-xdpi="6.1563125"
   inkscape:export-ydpi="6.1563125">
  <metadata
     id="metadata12">
    <rdf:RDF>
      <cc:Work
         rdf:about="">
        <dc:format>image/svg+xml</dc:format>
        <dc:type
           rdf:resource="http://purl.org/dc/dcmitype/StillImage" />
        <dc:title>Fedora logo (2021)</dc:title>
      </cc:Work>
    </rdf:RDF>
  </metadata>
  <defs
     id="defs10" />
  <sodipodi:namedview
     pagecolor="#ffffff"
     bordercolor="#666666"
     borderopacity="1"
     objecttolerance="10"
     gridtolerance="10"
     guidetolerance="10"
     inkscape:pageopacity="0"
     inkscape:pageshadow="2"
     inkscape:window-width="3840"
     inkscape:window-height="2066"
     id="namedview8"
     showgrid="false"
     inkscape:pagecheckerboard="true"
     inkscape:zoom="1.2934881"
     inkscape:cx="74.53581"
     inkscape:cy="229.03118"
     inkscape:window-x="1789"
     inkscape:window-y="-11"
     inkscape:window-maximized="1"
     inkscape:current-layer="layer2"
     showguides="true"
     inkscape:guide-bbox="true" />
  <title
     id="title2">Fedora logo (2021)</title>
  <g
     inkscape:groupmode="layer"
     id="layer1"
     inkscape:label="fedora-workstation"
     sodipodi:insensitive="true"
     style="display:none">
    <ellipse
       style="fill:#7bd854;fill-opacity:1;stroke:#ffffff;stroke-width:0;stroke-miterlimit:4;stroke-dasharray:none;stroke-opacity:1"
       id="path838"
       cx="250"
       cy="250"
       rx="250"
       ry="250.00008"
       inkscape:export-xdpi="6.1563125"
       inkscape:export-ydpi="6.1563125" />
  </g>
  <g
     inkscape:groupmode="layer"
     id="g878"
     inkscape:label="fedora-server"
     sodipodi:insensitive="true">
    <ellipse
       style="fill:#e1923d;fill-opacity:1;stroke:#ffffff;stroke-width:0;stroke-miterlimit:4;stroke-dasharray:none;stroke-opacity:1"
       id="ellipse876"
       cx="250"
       cy="250"
       rx="250"
       ry="250.00008"
       inkscape:export-xdpi="6.1563125"
       inkscape:export-ydpi="6.1563125" />
  </g>
  <g
     inkscape:groupmode="layer"
     id="layer2"
     inkscape:label="fedora"
     sodipodi:insensitive="true">
    <path
       d="m 319.18412,91.837359 c 41.3498,0 80.39283,31.165721 80.39283,74.184231 0,3.98774 0.0245,7.98039 -0.63802,12.50309 -1.14553,11.44052 -11.76446,19.6614 -23.32522,18.04913 -11.56077,-1.63165 -19.40864,-12.44175 -17.26877,-23.75221 0.19612,-1.29079 0.26579,-3.31779 0.26579,-6.80246 0,-24.38778 -20.26263,-33.7915 -39.41115,-33.7915 -19.15343,0 -36.41727,15.8577 -36.4418,33.7915 0.33105,20.74852 0,41.32527 0,62.06151 l 35.55836,-0.26185 c 27.75467,-0.56589 28.07369,40.58905 0.32025,40.39274 l -35.85284,0.26184 c -0.0869,16.6896 0.13047,13.6712 0.0438,22.07614 0,0 0.30062,20.4123 -0.31803,35.87738 -4.29203,45.44796 -43.58294,81.76707 -90.79776,81.76707 -50.06148,0 -91.28857,-40.27005 -91.28857,-89.66893 1.50282,-50.79768 42.65041,-90.77322 94.47876,-90.30697 l 28.90803,-0.2144 v 40.31911 l -28.90803,0.26161 h -0.15255 c -28.46633,0.82993 -52.88358,19.87733 -53.34984,49.91421 0,27.36204 22.44914,49.2762 50.30687,49.2762 27.8283,0 50.11055,-19.93625 50.11055,-49.22711 l -0.0435,-152.71204 c 0.0144,-2.83436 0.10879,-5.08712 0.42477,-8.21351 4.69695,-37.34977 38.62586,-65.816118 77.03087,-65.816118 z"
       style="fill:#ffffff;fill-opacity:1;stroke-width:2.40982"
       id="path4"
       sodipodi:nodetypes="cscccsscccccccscccccccsccccc" />
  </g>
</svg>
